<?xml version="1.0" encoding="utf-8"?>
<!-- Generator: Adobe Illustrator 15.0.0, SVG Export Plug-In . SVG Version: 6.00 Build 0)  -->
<!DOCTYPE svg PUBLIC "-//W3C//DTD SVG 1.1//EN" "http://www.w3.org/Graphics/SVG/1.1/DTD/svg11.dtd">
<svg version="1.1" id="Layer_1" xmlns="http://www.w3.org/2000/svg" xmlns:xlink="http://www.w3.org/1999/xlink" x="0px" y="0px"
	 width="414.478px" height="400.049px" viewBox="-55.478 -35.049 414.478 400.049"
	 enable-background="new -55.478 -35.049 414.478 400.049" xml:space="preserve">
<g id="Hintergrund">
</g>
<g id="Hilfslinien_anzeigen">
</g>
<g id="Vordergrund" display="none">
</g>
<g id="zeichnung">
	<rect x="60.605" y="47.666" stroke="#000000" stroke-width="0.25" stroke-miterlimit="3.8637" width="112.251" height="1.701"/>
	<path stroke="#000000" stroke-width="0.25" stroke-miterlimit="3.8637" d="M36.352,287.619H11.354v-1.701h24.997V287.619z
		 M53.104,285.918v1.701h-7.753v-1.701H53.104z"/>
	<path stroke="#000000" stroke-width="0.25" stroke-miterlimit="3.8637" d="M53.307,303.166v41.246h-1.701v-41.246H53.307z
		 M53.307,231.663v62.503h-1.701v-62.503H53.307L53.307,231.663z"/>
	<rect x="93.346" y="231.167" stroke="#000000" stroke-width="0.25" stroke-miterlimit="3.8637" width="1.701" height="113.5"/>
	<path stroke="#000000" stroke-width="0.25" stroke-miterlimit="3.8637" d="M100.602,133.612H59.104v-1.701h41.498V133.612z
		 M169.392,89.916h5.21v1.701h-5.21V89.916z M173.354,131.912v1.701h-63.752v-1.701H146.1V91.617H60.352v-1.701h95.38v1.701H147.8
		v40.294L173.354,131.912L173.354,131.912z"/>
	<path stroke="#000000" stroke-width="0.25" stroke-miterlimit="3.8637" d="M61.938,207.052v5.363h84.161v-38.495h1.701v38.495
		h25.299v-38.551h-63.498v-1.701h63.498v-11.529h1.701v51.781l0.054,1.701H80.1v1.134H59.104v-8.198H61.938L61.938,207.052z
		 M61.938,166.802v5.362h38.663v1.701H61.938v5.174h-2.834v-5.174v-1.701v-5.362H61.938z M61.938,126.052v12.736h-2.834v-12.736
		H61.938L61.938,126.052z M61.938,83.302v14.736h-2.834V83.302H61.938z M61.938,42.052v13.236h-2.834V42.052H61.938z
		 M173.099,25.491V9.251h-54.553v38.415h-1.701V9.251H61.938v4.787h-2.834V6.666v-0.25h116.83v19.075H173.099z M174.8,49.666v94.364
		h-1.701V48.162V38.116h2.835v11.55H174.8z"/>
	<path stroke="#000000" stroke-width="0.25" stroke-miterlimit="3.8637" d="M238.006,252.416v17.121h-2.084v-17.121H238.006z
		 M238.006,184.916v58.5h-2.084v-58.5H238.006z M238.006,171.166v4.75h-2.084v-4.75H238.006z M238.006,103.916v58.25h-2.084v-58.25
		H238.006z M238.006,83.155v11.761h-2.084V83.155H238.006z"/>
	<path stroke="#000000" stroke-width="0.25" stroke-miterlimit="3.8637" d="M270.751,50.118h-32.746v33.035h-2.834v-35.87h35.58
		V50.118z M348.818,53.23v-3.112h-65.441v-2.834h68.275v5.947L348.818,53.23L348.818,53.23z M348.818,94.354v-7.548h2.834v7.547
		L348.818,94.354L348.818,94.354z M348.818,135.477v-7.547h2.834v7.547H348.818z M348.818,176.601v-7.547h2.834v7.547H348.818z
		 M348.818,217.724v-7.547h2.834v7.547H348.818z M348.818,258.847v-7.547h2.834v7.547H348.818z M283.376,294.691h65.442v-2.268
		h2.834v5.102h-68.276V294.691z M238.006,268.937v25.752h32.745v2.836h-35.58v-28.588H238.006z"/>
	<path stroke="#000000" stroke-width="0.25" stroke-miterlimit="3.8637" d="M244.852,255.8h-8.327v-1.7h8.327V255.8z M301.352,255.8
		h-8.021v39.489h-1.701V255.8h-37.778v-1.7h47.5V255.8z M350.311,254.099v1.7h-39.959v-1.7H350.311z"/>
	<path stroke="#000000" stroke-width="0.25" stroke-miterlimit="3.8637" d="M244.852,92.255h-6.839v-1.701h6.839V92.255z
		 M301.352,92.255h-47.5v-1.701h37.778V49.367h1.701v41.188h8.021V92.255z M349.714,90.554v1.701h-39.363v-1.701H349.714z"/>
	<path stroke="#000000" stroke-width="0.25" stroke-miterlimit="3.8637" d="M241.352,154.797h-3.935v-0.85h3.935V154.797z
		 M280.102,160.501h8.288v0.85h-8.288V160.501z M241.352,113.67h-3.935v-0.851h3.935V113.67z M280.102,106.267h8.288v0.851h-8.288
		V106.267z M262.008,154.797h-12.906v-0.85h12.906v-19.603h-24.597v-1.701h24.597V113.67h-12.906v-0.85h12.906v-6.554h10.344v0.85
		h-9.493v25.526h86.553v1.701h-86.553V160.5h9.493v0.85h-10.344V154.797L262.008,154.797z"/>
	<path stroke="#000000" stroke-width="0.25" stroke-miterlimit="3.8637" d="M241.352,236.297h-3.935v-0.85h3.935V236.297z
		 M310.352,172.346h39.06v1.701h-39.06V172.346z M280.102,242.001h8.288v0.851h-8.288V242.001z M262.008,236.297h-12.906v-0.85
		h12.906v-19.956h-25.795v-1.701h55.417v-39.744h-55.113v-1.701h64.835v1.701h-8.021v39.744H350v1.701h-87.142v26.51h9.493v0.851
		h-10.344V236.297z"/>
	<path stroke="#000000" stroke-width="0.25" stroke-miterlimit="3.8637" d="M11.438,277.515v66.397H8.604v-66.397H11.438z
		 M79.855,228.672v2.834H11.438v33.385H8.604v-36.22L79.855,228.672L79.855,228.672z"/>
	<path stroke="#000000" stroke-width="0.25" stroke-miterlimit="3.8637" d="M82.1,276.166v6.504h-0.851v-6.504H82.1z M82.1,257.169
		v11.247h-0.851v-10.396h-27.9v-0.851H82.1z M75.445,245.166v12.002h-0.851v-12.002H75.445z M75.445,228.922v8.494h-0.851v-8.494
		H75.445z"/>
	<path stroke="#000000" stroke-width="0.25" stroke-miterlimit="3.8637" d="M123.35,276.166v6.504h-0.851v-6.504H123.35z
		 M123.35,257.169v11.247h-0.851v-10.396h-27.9v-0.851H123.35z M116.695,245.166v12.002h-0.851v-12.002H116.695z M116.695,230.416v7
		h-0.851v-7H116.695z"/>
	<path stroke="#000000" stroke-width="0.25" stroke-miterlimit="3.8637" d="M191.45,276.166v6.504H190.6v-6.504H191.45z
		 M190.6,257.169h28.75v0.851H191.45v10.396H190.6V257.169z M198.104,245.166v12.002h-0.85v-12.002H198.104z M197.254,230.416h0.85
		v7h-0.85V230.416z"/>
	<path stroke="#000000" stroke-width="0.25" stroke-miterlimit="3.8637" d="M82.852,231.507h-5.507v-1.7h5.507V231.507z
		 M124.602,231.507h-32.75v-1.7h32.75V231.507z M166.102,231.507h-32.5v-1.7h32.5V231.507z M180.352,231.507h-5.25v-1.7h5.25
		V231.507z M219.8,229.806v39.114h-1.701v-37.415h-28.748v-1.701H219.8V229.806z"/>
	<path stroke="#000000" stroke-width="0.25" stroke-miterlimit="3.8637" d="M15.024,345.757H8.604v-2.834h6.421V345.757z
		 M56.774,345.757h-8.174v-2.834h8.174V345.757z M98.274,345.757h-7.924v-2.834h7.924V345.757z M140.024,345.757h-8.174v-2.834
		h8.174V345.757z M181.024,345.757h-7.424v-2.834h7.424V345.757z M220.934,268.91v76.847h-6.332v-2.834h3.498V268.91H220.934z"/>
	<path stroke="#000000" stroke-width="0.25" stroke-miterlimit="3.8637" d="M136.546,303.166v42.495h-1.701v-42.495H136.546z
		 M176.345,287.619h-39.798v6.547h-1.701v-63.254h1.701v55.006h39.798v-55.006h1.701v112.5h-1.701V287.619z"/>
	<rect x="217.887" y="166.693" stroke="#000000" stroke-width="0.25" stroke-miterlimit="3.8637" width="2.834" height="33.094"/>
	<rect x="189.71" y="166.693" stroke="#000000" stroke-width="0.25" stroke-miterlimit="3.8637" width="2.835" height="33.094"/>
	<rect x="189.71" y="106.258" stroke="#000000" stroke-width="0.25" stroke-miterlimit="3.8637" width="2.835" height="34.299"/>
	<rect x="217.575" y="106.258" stroke="#000000" stroke-width="0.25" stroke-miterlimit="3.8637" width="2.834" height="34.299"/>
	<path stroke="#000000" stroke-width="0.25" stroke-miterlimit="3.8637" d="M219.587,61.166v47.388h-1.701V61.166H219.587z
		 M219.587,49.367v2.799h-1.701v-2.799H219.587z"/>
	<rect x="190.9" y="49.367" stroke="#000000" stroke-width="0.25" stroke-miterlimit="3.8637" width="1.701" height="59.188"/>
	<g>
		<rect x="189.768" y="65.963" stroke="#000000" stroke-width="0.25" stroke-miterlimit="3.8637" width="2.834" height="16.895"/>
		<path stroke="#000000" stroke-width="0.25" stroke-miterlimit="3.8637" d="M191.184,74.411"/>
	</g>
	<g>
		<rect x="217.887" y="66.856" stroke="#000000" stroke-width="0.25" stroke-miterlimit="3.8637" width="2.834" height="16.596"/>
		<path stroke="#000000" stroke-width="0.25" stroke-miterlimit="3.8637" d="M219.304,75.154"/>
	</g>
	<g>
		<rect x="173.1" y="66.856" stroke="#000000" stroke-width="0.25" stroke-miterlimit="3.8637" width="2.834" height="15.703"/>
		<path stroke="#000000" stroke-width="0.25" stroke-miterlimit="3.8637" d="M174.516,74.708"/>
	</g>
	<rect x="191.794" y="106.258" stroke="#000000" stroke-width="0.25" stroke-miterlimit="3.8637" width="27.529" height="1.701"/>
	<rect x="189.71" y="138.856" stroke="#000000" stroke-width="0.25" stroke-miterlimit="3.8637" width="30.511" height="1.701"/>
	<g>
		<rect x="190.008" y="166.693" stroke="#000000" stroke-width="0.25" stroke-miterlimit="3.8637" width="29.914" height="1.701"/>
		<path stroke="#000000" stroke-width="0.25" stroke-miterlimit="3.8637" d="M204.965,167.543"/>
	</g>
	<g>
		<rect x="192.389" y="198.086" stroke="#000000" stroke-width="0.25" stroke-miterlimit="3.8637" width="27.232" height="1.701"/>
		<path stroke="#000000" stroke-width="0.25" stroke-miterlimit="3.8637" d="M206.005,198.937"/>
	</g>
	<path stroke="#000000" stroke-width="0.25" stroke-miterlimit="3.8637" d="M192.304,211.666v1.572h26.178v-15.151h1.701v16.853
		h-29.58v-3.273H192.304z M192.304,198.978v3.688h-1.701v-3.688H192.304z"/>
</g>
<g id="Tueren_x5F_Fenster">
	<g>
		<rect x="204.602" y="65.666" stroke="#000000" stroke-width="0.25" stroke-miterlimit="3.8637" width="1.5" height="27"/>
		<path stroke="#000000" stroke-width="0.25" stroke-miterlimit="3.8637" d="M205.352,79.166"/>
	</g>
</g>
<polyline fill="none" stroke="#000000" stroke-width="0.25" stroke-miterlimit="3.8637" points="91.852,230.507 91.852,240.873 
	82.168,231.189 "/>
<polyline fill="none" stroke="#000000" stroke-width="0.25" stroke-miterlimit="3.8637" points="75.353,237.689 67.456,237.689 
	74.833,245.066 "/>
<polyline fill="none" stroke="#000000" stroke-width="0.25" stroke-miterlimit="3.8637" points="116.552,237.689 108.655,237.689 
	116.032,245.066 "/>
<polyline fill="none" stroke="#000000" stroke-width="0.25" stroke-miterlimit="3.8637" points="191.499,211.503 200.726,211.503 
	192.107,202.885 "/>
<polyline fill="none" stroke="#000000" stroke-width="0.25" stroke-miterlimit="3.8637" points="241.418,112.984 241.418,121.332 
	249.216,113.534 "/>
<polyline fill="none" stroke="#000000" stroke-width="0.25" stroke-miterlimit="3.8637" points="197.857,237.69 205.755,237.69 
	198.378,245.067 "/>
<polyline fill="none" stroke="#000000" stroke-width="0.25" stroke-miterlimit="3.8637" points="241.522,235.948 241.522,228.051 
	248.899,235.427 "/>
<polyline fill="none" stroke="#000000" stroke-width="0.25" stroke-miterlimit="3.8637" points="241.522,154.653 241.522,146.755 
	248.899,154.132 "/>
<polyline fill="#FFFFFF" stroke="#000000" stroke-width="0.25" stroke-miterlimit="3.8637" points="133.787,230.507 
	133.787,240.873 124.104,231.189 "/>
<polyline fill="#FFFFFF" stroke="#000000" stroke-width="0.25" stroke-miterlimit="3.8637" points="109.435,173.299 
	109.435,182.828 100.533,173.927 "/>
<polyline fill="#FFFFFF" stroke="#000000" stroke-width="0.25" stroke-miterlimit="3.8637" points="119.083,161.847 
	109.553,161.847 118.455,152.946 "/>
<polyline fill="#FFFFFF" stroke="#000000" stroke-width="0.25" stroke-miterlimit="3.8637" points="109.528,132.439 
	109.528,123.095 100.8,131.823 "/>
<polyline fill="#FFFFFF" stroke="#000000" stroke-width="0.25" stroke-miterlimit="3.8637" points="119.06,144.145 109.716,144.145 
	118.444,152.874 "/>
<polyline fill="#FFFFFF" stroke="#000000" stroke-width="0.25" stroke-miterlimit="3.8637" points="174.986,230.507 
	174.986,240.873 165.303,231.189 "/>
<polyline fill="none" stroke="#000000" stroke-width="0.25" stroke-miterlimit="3.8637" points="237.059,175.855 247.425,175.855 
	237.741,185.538 "/>
<polyline fill="#FFFFFF" stroke="#000000" stroke-width="0.25" stroke-miterlimit="3.8637" points="180.085,230.507 
	180.085,240.873 189.768,231.189 "/>
<polyline fill="#FFFFFF" stroke="#000000" stroke-width="0.25" stroke-linecap="round" stroke-miterlimit="3.8637" points="
	79.989,217.287 70.086,217.287 79.77,226.969 "/>
<polyline fill="#FFFFFF" stroke="#000000" stroke-width="0.25" stroke-linecap="round" stroke-miterlimit="3.8637" points="
	223.167,268.798 223.167,278.701 232.85,269.017 "/>
<polyline fill="none" stroke="#000000" stroke-width="0.25" stroke-miterlimit="3.8637" points="237.679,171.559 248.045,171.559 
	238.361,161.876 "/>
<polyline fill="none" stroke="#000000" stroke-width="0.25" stroke-miterlimit="3.8637" points="237.679,94.573 248.045,94.573 
	238.361,104.255 "/>
<polyline fill="none" stroke="#000000" stroke-width="0.25" stroke-miterlimit="3.8637" points="232.999,83.532 232.999,73.166 
	223.316,82.849 "/>
<polyline fill="none" stroke="#000000" stroke-width="0.25" stroke-miterlimit="3.8637" points="233.665,49.085 233.665,38.719 
	223.121,49.263 "/>
<polyline fill="none" stroke="#000000" stroke-width="0.25" stroke-miterlimit="3.8637" points="218.531,52.169 209.044,52.169 
	217.906,61.031 "/>
<polyline fill="#FFFFFF" stroke="#000000" stroke-width="0.25" stroke-miterlimit="3.8637" points="237.495,252.855 
	247.862,252.855 238.179,243.172 "/>
<polyline fill="#FFFFFF" stroke="#000000" stroke-width="0.25" stroke-miterlimit="3.8637" points="36.352,285.918 45.326,276.943 
	45.326,285.918 "/>
<polyline fill="#FFFFFF" stroke="#000000" stroke-width="0.25" stroke-miterlimit="3.8637" points="52.315,303.207 43.34,294.232 
	52.315,294.232 "/>
<polyline fill="none" stroke="#000000" stroke-width="0.25" stroke-miterlimit="3.8637" points="253.898,255.975 244.924,264.95 
	244.924,255.975 "/>
<polyline fill="none" stroke="#000000" stroke-width="0.25" stroke-miterlimit="3.8637" points="310.363,255.607 301.389,264.582 
	301.389,255.607 "/>
<polyline fill="none" stroke="#000000" stroke-width="0.25" stroke-miterlimit="3.8637" points="310.363,174.128 301.389,183.103 
	301.389,174.128 "/>
<polyline fill="none" stroke="#000000" stroke-width="0.25" stroke-miterlimit="3.8637" points="310.363,90.59 301.389,81.615 
	301.389,90.59 "/>
<polyline fill="none" stroke="#000000" stroke-width="0.25" stroke-miterlimit="3.8637" points="254.082,90.59 245.107,81.615 
	245.107,90.59 "/>
<polyline fill="#FFFFFF" stroke="#000000" stroke-width="0.25" stroke-miterlimit="3.8637" points="135.854,303.207 
	144.829,294.232 135.854,294.232 "/>
<line fill="none" stroke="#000000" stroke-width="0.25" stroke-miterlimit="3.8637" x1="79.963" y1="215.202" x2="79.963" y2="228.812"/>
<line fill="none" stroke="#000000" stroke-width="0.25" stroke-miterlimit="3.8637" x1="220.85" y1="268.908" x2="235.195" y2="268.908"/>
<line fill="none" stroke="#000000" stroke-width="0.25" stroke-miterlimit="3.8637" x1="220.481" y1="83.145" x2="235.012" y2="83.145"/>
<g>
	
		<rect x="282.465" y="107.241" fill="none" stroke="#000000" stroke-width="0.25" stroke-miterlimit="3.8637" width="6.253" height="25.198"/>
	
		<line fill="none" stroke="#000000" stroke-width="0.25" stroke-miterlimit="3.8637" x1="288.718" y1="107.241" x2="282.465" y2="131.886"/>
	
		<line fill="none" stroke="#000000" stroke-width="0.25" stroke-miterlimit="3.8637" x1="282.465" y1="107.241" x2="288.718" y2="132.439"/>
</g>
<g>
	
		<rect x="282.465" y="134.646" fill="none" stroke="#000000" stroke-width="0.25" stroke-miterlimit="3.8637" width="6.253" height="25.934"/>
	
		<line fill="none" stroke="#000000" stroke-width="0.25" stroke-miterlimit="3.8637" x1="288.718" y1="134.646" x2="282.465" y2="160.011"/>
	
		<line fill="none" stroke="#000000" stroke-width="0.25" stroke-miterlimit="3.8637" x1="282.465" y1="134.646" x2="288.718" y2="160.579"/>
</g>
<g>
	
		<rect x="282.465" y="215.757" fill="none" stroke="#000000" stroke-width="0.25" stroke-miterlimit="3.8637" width="6.253" height="25.934"/>
	
		<line fill="none" stroke="#000000" stroke-width="0.25" stroke-miterlimit="3.8637" x1="288.718" y1="215.757" x2="282.465" y2="241.122"/>
	
		<line fill="none" stroke="#000000" stroke-width="0.25" stroke-miterlimit="3.8637" x1="282.465" y1="215.757" x2="288.718" y2="241.69"/>
</g>
<g>
	
		<rect x="191.697" y="276.545" fill="none" stroke="#000000" stroke-width="0.25" stroke-miterlimit="3.8637" width="26.118" height="6.252"/>
	
		<line fill="none" stroke="#000000" stroke-width="0.25" stroke-miterlimit="3.8637" x1="217.815" y1="282.797" x2="192.27" y2="276.545"/>
	
		<line fill="none" stroke="#000000" stroke-width="0.25" stroke-miterlimit="3.8637" x1="217.815" y1="276.545" x2="191.697" y2="282.797"/>
</g>
<g>
	
		<rect x="95.32" y="276.545" fill="none" stroke="#000000" stroke-width="0.25" stroke-miterlimit="3.8637" width="27.222" height="6.252"/>
	
		<line fill="none" stroke="#000000" stroke-width="0.25" stroke-miterlimit="3.8637" x1="122.542" y1="282.797" x2="95.917" y2="276.545"/>
	
		<line fill="none" stroke="#000000" stroke-width="0.25" stroke-miterlimit="3.8637" x1="122.542" y1="276.545" x2="95.32" y2="282.797"/>
</g>
<g>
	
		<rect x="53.569" y="276.545" fill="none" stroke="#000000" stroke-width="0.25" stroke-miterlimit="3.8637" width="27.59" height="6.252"/>
	
		<line fill="none" stroke="#000000" stroke-width="0.25" stroke-miterlimit="3.8637" x1="81.159" y1="282.797" x2="54.174" y2="276.545"/>
	
		<line fill="none" stroke="#000000" stroke-width="0.25" stroke-miterlimit="3.8637" x1="81.159" y1="276.545" x2="53.569" y2="282.797"/>
</g>
<line fill="none" stroke="#000000" stroke-width="0.25" stroke-miterlimit="3.8637" x1="61.945" y1="14.209" x2="61.945" y2="207.435"/>
<line fill="none" stroke="#000000" stroke-width="0.25" stroke-miterlimit="3.8637" x1="214.421" y1="342.911" x2="14.987" y2="342.911"/>
<line fill="none" stroke="#000000" stroke-width="0.25" stroke-miterlimit="3.8637" x1="11.209" y1="264.648" x2="11.209" y2="278.412"/>
<line fill="none" stroke="#000000" stroke-width="0.25" stroke-miterlimit="3.8637" x1="9.589" y1="344.259" x2="219.277" y2="344.259"/>
<line fill="none" stroke="#000000" stroke-width="0.25" stroke-miterlimit="3.8637" x1="9.859" y1="264.647" x2="9.859" y2="280.569"/>
<polyline fill="none" stroke="#000000" stroke-width="0.25" stroke-miterlimit="3.8637" points="270.283,50.144 348.546,50.144 
	348.546,294.875 269.204,294.875 "/>
<polyline fill="none" stroke="#000000" stroke-width="0.25" stroke-miterlimit="3.8637" points="270.687,48.738 350.203,48.738 
	350.203,296.215 267.016,296.215 "/>
<rect x="175.879" y="23.27" fill="none" stroke="#000000" stroke-width="0.25" stroke-miterlimit="3.8637" width="59.283" height="25.925"/>
<line fill="none" stroke="#1D1D1B" stroke-width="0.25" stroke-miterlimit="3.8637" x1="192.787" y1="68.647" x2="217.854" y2="68.647"/>
<line fill="none" stroke="#1D1D1B" stroke-width="0.25" stroke-miterlimit="3.8637" x1="192.711" y1="65.614" x2="217.777" y2="65.614"/>
<line fill="none" stroke="#1D1D1B" stroke-width="0.25" stroke-miterlimit="3.8637" x1="192.787" y1="71.679" x2="217.854" y2="71.679"/>
<line fill="none" stroke="#1D1D1B" stroke-width="0.25" stroke-miterlimit="3.8637" x1="192.787" y1="74.712" x2="217.854" y2="74.712"/>
<line fill="none" stroke="#1D1D1B" stroke-width="0.25" stroke-miterlimit="3.8637" x1="192.787" y1="77.745" x2="217.854" y2="77.745"/>
<line fill="none" stroke="#1D1D1B" stroke-width="0.25" stroke-miterlimit="3.8637" x1="192.787" y1="80.778" x2="217.854" y2="80.778"/>
<line fill="none" stroke="#1D1D1B" stroke-width="0.25" stroke-miterlimit="3.8637" x1="192.787" y1="83.811" x2="217.854" y2="83.811"/>
<line fill="none" stroke="#1D1D1B" stroke-width="0.25" stroke-miterlimit="3.8637" x1="192.787" y1="86.844" x2="217.854" y2="86.844"/>
<line fill="none" stroke="#1D1D1B" stroke-width="0.25" stroke-miterlimit="3.8637" x1="192.787" y1="89.876" x2="217.854" y2="89.876"/>
<line fill="none" stroke="#1D1D1B" stroke-width="0.25" stroke-miterlimit="3.8637" x1="192.787" y1="92.909" x2="217.854" y2="92.909"/>
<rect x="30.21" y="-14.852" fill="none" stroke="#000000" stroke-width="0.25" stroke-miterlimit="3.8637" width="28.893" height="230.103"/>
<line fill="none" stroke="#000000" stroke-width="0.25" stroke-miterlimit="3.8637" x1="174.898" y1="49.821" x2="217.741" y2="49.821"/>
<line fill="none" stroke="#000000" stroke-miterlimit="3.8637" x1="118.906" y1="132.931" x2="118.906" y2="144.145"/>
<line fill="none" stroke="#000000" stroke-miterlimit="3.8637" x1="118.906" y1="161.681" x2="118.906" y2="172.895"/>
<polygon fill="none" stroke="#000000" stroke-width="0.25" stroke-miterlimit="3.8637" points="8.604,228.671 8.604,345.757 
	220.934,345.757 220.934,286.299 235.246,286.299 235.246,297.525 351.652,297.525 351.652,47.284 235.171,47.284 235.171,49.123 
	175.934,49.123 175.934,6.416 59.104,6.416 59.104,215.251 62.034,215.251 62.034,228.748 "/>
<g>
	<g>
		<polygon points="53.173,155.221 57.49,152.728 53.173,150.235 		"/>
	</g>
</g>
<rect x="195.261" y="113.719" fill="none" stroke="#000000" stroke-miterlimit="3.8637" width="20.69" height="23.153"/>
<rect x="195.261" y="169.384" fill="none" stroke="#000000" stroke-miterlimit="3.8637" width="20.69" height="23.153"/>
<line fill="none" stroke="#000000" stroke-width="0.25" stroke-miterlimit="3.8637" x1="64.72" y1="5.837" x2="64.72" y2="-14.36"/>
<line fill="none" stroke="#000000" stroke-width="0.25" stroke-miterlimit="3.8637" x1="69.947" y1="5.837" x2="69.947" y2="-14.36"/>
<line fill="none" stroke="#000000" stroke-width="0.25" stroke-miterlimit="3.8637" x1="75.174" y1="5.837" x2="75.174" y2="-14.36"/>
<line fill="none" stroke="#000000" stroke-width="0.25" stroke-miterlimit="3.8637" x1="80.401" y1="5.837" x2="80.401" y2="-14.36"/>
<line fill="none" stroke="#000000" stroke-width="0.25" stroke-miterlimit="3.8637" x1="85.628" y1="5.837" x2="85.628" y2="-14.36"/>
<line fill="none" stroke="#000000" stroke-width="0.25" stroke-miterlimit="3.8637" x1="90.855" y1="5.837" x2="90.855" y2="-14.36"/>
<line fill="none" stroke="#000000" stroke-width="0.25" stroke-miterlimit="3.8637" x1="96.082" y1="5.837" x2="96.082" y2="-14.36"/>
<line fill="none" stroke="#000000" stroke-width="0.25" stroke-miterlimit="3.8637" x1="101.309" y1="5.837" x2="101.309" y2="-14.36"/>
<rect x="59.104" y="-14.492" fill="none" stroke="#000000" stroke-width="0.25" stroke-miterlimit="3.8637" width="42.299" height="20.718"/>
<line fill="none" stroke="#000000" stroke-width="0.25" stroke-miterlimit="3.8637" x1="5.079" y1="134.675" x2="5.079" y2="169.81"/>
<polyline fill="none" stroke="#000000" stroke-width="0.25" stroke-miterlimit="3.8637" points="30.255,134.675 0.048,134.675 
	0.048,169.81 30.232,169.81 30.232,134.675 "/>
<line fill="none" stroke="#000000" stroke-width="0.25" stroke-miterlimit="3.8637" x1="10.11" y1="134.675" x2="10.11" y2="169.81"/>
<line fill="none" stroke="#000000" stroke-width="0.25" stroke-miterlimit="3.8637" x1="15.141" y1="134.675" x2="15.141" y2="169.81"/>
<line fill="none" stroke="#000000" stroke-width="0.25" stroke-miterlimit="3.8637" x1="25.202" y1="134.675" x2="25.202" y2="169.81"/>
<line fill="none" stroke="#000000" stroke-width="0.25" stroke-miterlimit="3.8637" x1="20.171" y1="134.675" x2="20.171" y2="169.81"/>
</svg>
